%TF.GenerationSoftware,KiCad,Pcbnew,(5.1.8)-1*%
%TF.CreationDate,2022-03-13T17:16:43-07:00*%
%TF.ProjectId,lm5116_synchronous_buck,6c6d3531-3136-45f7-9379-6e6368726f6e,rev?*%
%TF.SameCoordinates,Original*%
%TF.FileFunction,Legend,Top*%
%TF.FilePolarity,Positive*%
%FSLAX46Y46*%
G04 Gerber Fmt 4.6, Leading zero omitted, Abs format (unit mm)*
G04 Created by KiCad (PCBNEW (5.1.8)-1) date 2022-03-13 17:16:43*
%MOMM*%
%LPD*%
G01*
G04 APERTURE LIST*
%ADD10C,2.000000*%
%ADD11C,0.150000*%
%ADD12C,0.120000*%
G04 APERTURE END LIST*
D10*
X140200000Y-84800000D02*
G75*
G03*
X140200000Y-84800000I-200000J0D01*
G01*
X122100000Y-98600000D02*
G75*
G03*
X122100000Y-98600000I-100000J0D01*
G01*
D11*
X141195238Y-122526190D02*
X141195238Y-123002380D01*
X140861904Y-122002380D02*
X141195238Y-122526190D01*
X141528571Y-122002380D01*
X142290476Y-122335714D02*
X142290476Y-123002380D01*
X141861904Y-122335714D02*
X141861904Y-122859523D01*
X141909523Y-122954761D01*
X142004761Y-123002380D01*
X142147619Y-123002380D01*
X142242857Y-122954761D01*
X142290476Y-122907142D01*
X143195238Y-122335714D02*
X143195238Y-123335714D01*
X143195238Y-122954761D02*
X143100000Y-123002380D01*
X142909523Y-123002380D01*
X142814285Y-122954761D01*
X142766666Y-122907142D01*
X142719047Y-122811904D01*
X142719047Y-122526190D01*
X142766666Y-122430952D01*
X142814285Y-122383333D01*
X142909523Y-122335714D01*
X143100000Y-122335714D01*
X143195238Y-122383333D01*
X143671428Y-123002380D02*
X143671428Y-122335714D01*
X143671428Y-122002380D02*
X143623809Y-122050000D01*
X143671428Y-122097619D01*
X143719047Y-122050000D01*
X143671428Y-122002380D01*
X143671428Y-122097619D01*
X145242857Y-122478571D02*
X144909523Y-122478571D01*
X144909523Y-123002380D02*
X144909523Y-122002380D01*
X145385714Y-122002380D01*
X146195238Y-122335714D02*
X146195238Y-123002380D01*
X145766666Y-122335714D02*
X145766666Y-122859523D01*
X145814285Y-122954761D01*
X145909523Y-123002380D01*
X146052380Y-123002380D01*
X146147619Y-122954761D01*
X146195238Y-122907142D01*
X128338095Y-124652380D02*
X127861904Y-124652380D01*
X127861904Y-123652380D01*
X128671428Y-124652380D02*
X128671428Y-123652380D01*
X129004761Y-124366666D01*
X129338095Y-123652380D01*
X129338095Y-124652380D01*
X130290476Y-123652380D02*
X129814285Y-123652380D01*
X129766666Y-124128571D01*
X129814285Y-124080952D01*
X129909523Y-124033333D01*
X130147619Y-124033333D01*
X130242857Y-124080952D01*
X130290476Y-124128571D01*
X130338095Y-124223809D01*
X130338095Y-124461904D01*
X130290476Y-124557142D01*
X130242857Y-124604761D01*
X130147619Y-124652380D01*
X129909523Y-124652380D01*
X129814285Y-124604761D01*
X129766666Y-124557142D01*
X131290476Y-124652380D02*
X130719047Y-124652380D01*
X131004761Y-124652380D02*
X131004761Y-123652380D01*
X130909523Y-123795238D01*
X130814285Y-123890476D01*
X130719047Y-123938095D01*
X132242857Y-124652380D02*
X131671428Y-124652380D01*
X131957142Y-124652380D02*
X131957142Y-123652380D01*
X131861904Y-123795238D01*
X131766666Y-123890476D01*
X131671428Y-123938095D01*
X133100000Y-123652380D02*
X132909523Y-123652380D01*
X132814285Y-123700000D01*
X132766666Y-123747619D01*
X132671428Y-123890476D01*
X132623809Y-124080952D01*
X132623809Y-124461904D01*
X132671428Y-124557142D01*
X132719047Y-124604761D01*
X132814285Y-124652380D01*
X133004761Y-124652380D01*
X133100000Y-124604761D01*
X133147619Y-124557142D01*
X133195238Y-124461904D01*
X133195238Y-124223809D01*
X133147619Y-124128571D01*
X133100000Y-124080952D01*
X133004761Y-124033333D01*
X132814285Y-124033333D01*
X132719047Y-124080952D01*
X132671428Y-124128571D01*
X132623809Y-124223809D01*
X134290476Y-123652380D02*
X134957142Y-123652380D01*
X134528571Y-124652380D01*
X135290476Y-123747619D02*
X135338095Y-123700000D01*
X135433333Y-123652380D01*
X135671428Y-123652380D01*
X135766666Y-123700000D01*
X135814285Y-123747619D01*
X135861904Y-123842857D01*
X135861904Y-123938095D01*
X135814285Y-124080952D01*
X135242857Y-124652380D01*
X135861904Y-124652380D01*
X136195238Y-123652380D02*
X136433333Y-124652380D01*
X136623809Y-123938095D01*
X136814285Y-124652380D01*
X137052380Y-123652380D01*
X138147619Y-124604761D02*
X138290476Y-124652380D01*
X138528571Y-124652380D01*
X138623809Y-124604761D01*
X138671428Y-124557142D01*
X138719047Y-124461904D01*
X138719047Y-124366666D01*
X138671428Y-124271428D01*
X138623809Y-124223809D01*
X138528571Y-124176190D01*
X138338095Y-124128571D01*
X138242857Y-124080952D01*
X138195238Y-124033333D01*
X138147619Y-123938095D01*
X138147619Y-123842857D01*
X138195238Y-123747619D01*
X138242857Y-123700000D01*
X138338095Y-123652380D01*
X138576190Y-123652380D01*
X138719047Y-123700000D01*
X139052380Y-123985714D02*
X139290476Y-124652380D01*
X139528571Y-123985714D02*
X139290476Y-124652380D01*
X139195238Y-124890476D01*
X139147619Y-124938095D01*
X139052380Y-124985714D01*
X139909523Y-123985714D02*
X139909523Y-124652380D01*
X139909523Y-124080952D02*
X139957142Y-124033333D01*
X140052380Y-123985714D01*
X140195238Y-123985714D01*
X140290476Y-124033333D01*
X140338095Y-124128571D01*
X140338095Y-124652380D01*
X141242857Y-124604761D02*
X141147619Y-124652380D01*
X140957142Y-124652380D01*
X140861904Y-124604761D01*
X140814285Y-124557142D01*
X140766666Y-124461904D01*
X140766666Y-124176190D01*
X140814285Y-124080952D01*
X140861904Y-124033333D01*
X140957142Y-123985714D01*
X141147619Y-123985714D01*
X141242857Y-124033333D01*
X141671428Y-124652380D02*
X141671428Y-123652380D01*
X142100000Y-124652380D02*
X142100000Y-124128571D01*
X142052380Y-124033333D01*
X141957142Y-123985714D01*
X141814285Y-123985714D01*
X141719047Y-124033333D01*
X141671428Y-124080952D01*
X142576190Y-124652380D02*
X142576190Y-123985714D01*
X142576190Y-124176190D02*
X142623809Y-124080952D01*
X142671428Y-124033333D01*
X142766666Y-123985714D01*
X142861904Y-123985714D01*
X143338095Y-124652380D02*
X143242857Y-124604761D01*
X143195238Y-124557142D01*
X143147619Y-124461904D01*
X143147619Y-124176190D01*
X143195238Y-124080952D01*
X143242857Y-124033333D01*
X143338095Y-123985714D01*
X143480952Y-123985714D01*
X143576190Y-124033333D01*
X143623809Y-124080952D01*
X143671428Y-124176190D01*
X143671428Y-124461904D01*
X143623809Y-124557142D01*
X143576190Y-124604761D01*
X143480952Y-124652380D01*
X143338095Y-124652380D01*
X144100000Y-123985714D02*
X144100000Y-124652380D01*
X144100000Y-124080952D02*
X144147619Y-124033333D01*
X144242857Y-123985714D01*
X144385714Y-123985714D01*
X144480952Y-124033333D01*
X144528571Y-124128571D01*
X144528571Y-124652380D01*
X145147619Y-124652380D02*
X145052380Y-124604761D01*
X145004761Y-124557142D01*
X144957142Y-124461904D01*
X144957142Y-124176190D01*
X145004761Y-124080952D01*
X145052380Y-124033333D01*
X145147619Y-123985714D01*
X145290476Y-123985714D01*
X145385714Y-124033333D01*
X145433333Y-124080952D01*
X145480952Y-124176190D01*
X145480952Y-124461904D01*
X145433333Y-124557142D01*
X145385714Y-124604761D01*
X145290476Y-124652380D01*
X145147619Y-124652380D01*
X146338095Y-123985714D02*
X146338095Y-124652380D01*
X145909523Y-123985714D02*
X145909523Y-124509523D01*
X145957142Y-124604761D01*
X146052380Y-124652380D01*
X146195238Y-124652380D01*
X146290476Y-124604761D01*
X146338095Y-124557142D01*
X146766666Y-124604761D02*
X146861904Y-124652380D01*
X147052380Y-124652380D01*
X147147619Y-124604761D01*
X147195238Y-124509523D01*
X147195238Y-124461904D01*
X147147619Y-124366666D01*
X147052380Y-124319047D01*
X146909523Y-124319047D01*
X146814285Y-124271428D01*
X146766666Y-124176190D01*
X146766666Y-124128571D01*
X146814285Y-124033333D01*
X146909523Y-123985714D01*
X147052380Y-123985714D01*
X147147619Y-124033333D01*
X148719047Y-124128571D02*
X148861904Y-124176190D01*
X148909523Y-124223809D01*
X148957142Y-124319047D01*
X148957142Y-124461904D01*
X148909523Y-124557142D01*
X148861904Y-124604761D01*
X148766666Y-124652380D01*
X148385714Y-124652380D01*
X148385714Y-123652380D01*
X148719047Y-123652380D01*
X148814285Y-123700000D01*
X148861904Y-123747619D01*
X148909523Y-123842857D01*
X148909523Y-123938095D01*
X148861904Y-124033333D01*
X148814285Y-124080952D01*
X148719047Y-124128571D01*
X148385714Y-124128571D01*
X149814285Y-123985714D02*
X149814285Y-124652380D01*
X149385714Y-123985714D02*
X149385714Y-124509523D01*
X149433333Y-124604761D01*
X149528571Y-124652380D01*
X149671428Y-124652380D01*
X149766666Y-124604761D01*
X149814285Y-124557142D01*
X150719047Y-124604761D02*
X150623809Y-124652380D01*
X150433333Y-124652380D01*
X150338095Y-124604761D01*
X150290476Y-124557142D01*
X150242857Y-124461904D01*
X150242857Y-124176190D01*
X150290476Y-124080952D01*
X150338095Y-124033333D01*
X150433333Y-123985714D01*
X150623809Y-123985714D01*
X150719047Y-124033333D01*
X151147619Y-124652380D02*
X151147619Y-123652380D01*
X151242857Y-124271428D02*
X151528571Y-124652380D01*
X151528571Y-123985714D02*
X151147619Y-124366666D01*
X153290476Y-124557142D02*
X153242857Y-124604761D01*
X153100000Y-124652380D01*
X153004761Y-124652380D01*
X152861904Y-124604761D01*
X152766666Y-124509523D01*
X152719047Y-124414285D01*
X152671428Y-124223809D01*
X152671428Y-124080952D01*
X152719047Y-123890476D01*
X152766666Y-123795238D01*
X152861904Y-123700000D01*
X153004761Y-123652380D01*
X153100000Y-123652380D01*
X153242857Y-123700000D01*
X153290476Y-123747619D01*
X153861904Y-124652380D02*
X153766666Y-124604761D01*
X153719047Y-124557142D01*
X153671428Y-124461904D01*
X153671428Y-124176190D01*
X153719047Y-124080952D01*
X153766666Y-124033333D01*
X153861904Y-123985714D01*
X154004761Y-123985714D01*
X154100000Y-124033333D01*
X154147619Y-124080952D01*
X154195238Y-124176190D01*
X154195238Y-124461904D01*
X154147619Y-124557142D01*
X154100000Y-124604761D01*
X154004761Y-124652380D01*
X153861904Y-124652380D01*
X154623809Y-123985714D02*
X154623809Y-124652380D01*
X154623809Y-124080952D02*
X154671428Y-124033333D01*
X154766666Y-123985714D01*
X154909523Y-123985714D01*
X155004761Y-124033333D01*
X155052380Y-124128571D01*
X155052380Y-124652380D01*
X155433333Y-123985714D02*
X155671428Y-124652380D01*
X155909523Y-123985714D01*
X156671428Y-124604761D02*
X156576190Y-124652380D01*
X156385714Y-124652380D01*
X156290476Y-124604761D01*
X156242857Y-124509523D01*
X156242857Y-124128571D01*
X156290476Y-124033333D01*
X156385714Y-123985714D01*
X156576190Y-123985714D01*
X156671428Y-124033333D01*
X156719047Y-124128571D01*
X156719047Y-124223809D01*
X156242857Y-124319047D01*
X157147619Y-124652380D02*
X157147619Y-123985714D01*
X157147619Y-124176190D02*
X157195238Y-124080952D01*
X157242857Y-124033333D01*
X157338095Y-123985714D01*
X157433333Y-123985714D01*
X157623809Y-123985714D02*
X158004761Y-123985714D01*
X157766666Y-123652380D02*
X157766666Y-124509523D01*
X157814285Y-124604761D01*
X157909523Y-124652380D01*
X158004761Y-124652380D01*
X158719047Y-124604761D02*
X158623809Y-124652380D01*
X158433333Y-124652380D01*
X158338095Y-124604761D01*
X158290476Y-124509523D01*
X158290476Y-124128571D01*
X158338095Y-124033333D01*
X158433333Y-123985714D01*
X158623809Y-123985714D01*
X158719047Y-124033333D01*
X158766666Y-124128571D01*
X158766666Y-124223809D01*
X158290476Y-124319047D01*
X159195238Y-124652380D02*
X159195238Y-123985714D01*
X159195238Y-124176190D02*
X159242857Y-124080952D01*
X159290476Y-124033333D01*
X159385714Y-123985714D01*
X159480952Y-123985714D01*
X142623809Y-126302380D02*
X142290476Y-125826190D01*
X142052380Y-126302380D02*
X142052380Y-125302380D01*
X142433333Y-125302380D01*
X142528571Y-125350000D01*
X142576190Y-125397619D01*
X142623809Y-125492857D01*
X142623809Y-125635714D01*
X142576190Y-125730952D01*
X142528571Y-125778571D01*
X142433333Y-125826190D01*
X142052380Y-125826190D01*
X143433333Y-126254761D02*
X143338095Y-126302380D01*
X143147619Y-126302380D01*
X143052380Y-126254761D01*
X143004761Y-126159523D01*
X143004761Y-125778571D01*
X143052380Y-125683333D01*
X143147619Y-125635714D01*
X143338095Y-125635714D01*
X143433333Y-125683333D01*
X143480952Y-125778571D01*
X143480952Y-125873809D01*
X143004761Y-125969047D01*
X143814285Y-125635714D02*
X144052380Y-126302380D01*
X144290476Y-125635714D01*
X145195238Y-126302380D02*
X144623809Y-126302380D01*
X144909523Y-126302380D02*
X144909523Y-125302380D01*
X144814285Y-125445238D01*
X144719047Y-125540476D01*
X144623809Y-125588095D01*
X121438095Y-116100000D02*
X121342857Y-116052380D01*
X121200000Y-116052380D01*
X121057142Y-116100000D01*
X120961904Y-116195238D01*
X120914285Y-116290476D01*
X120866666Y-116480952D01*
X120866666Y-116623809D01*
X120914285Y-116814285D01*
X120961904Y-116909523D01*
X121057142Y-117004761D01*
X121200000Y-117052380D01*
X121295238Y-117052380D01*
X121438095Y-117004761D01*
X121485714Y-116957142D01*
X121485714Y-116623809D01*
X121295238Y-116623809D01*
X121914285Y-117052380D02*
X121914285Y-116052380D01*
X122485714Y-117052380D01*
X122485714Y-116052380D01*
X122961904Y-117052380D02*
X122961904Y-116052380D01*
X123200000Y-116052380D01*
X123342857Y-116100000D01*
X123438095Y-116195238D01*
X123485714Y-116290476D01*
X123533333Y-116480952D01*
X123533333Y-116623809D01*
X123485714Y-116814285D01*
X123438095Y-116909523D01*
X123342857Y-117004761D01*
X123200000Y-117052380D01*
X122961904Y-117052380D01*
X168738095Y-116000000D02*
X168642857Y-115952380D01*
X168500000Y-115952380D01*
X168357142Y-116000000D01*
X168261904Y-116095238D01*
X168214285Y-116190476D01*
X168166666Y-116380952D01*
X168166666Y-116523809D01*
X168214285Y-116714285D01*
X168261904Y-116809523D01*
X168357142Y-116904761D01*
X168500000Y-116952380D01*
X168595238Y-116952380D01*
X168738095Y-116904761D01*
X168785714Y-116857142D01*
X168785714Y-116523809D01*
X168595238Y-116523809D01*
X169214285Y-116952380D02*
X169214285Y-115952380D01*
X169785714Y-116952380D01*
X169785714Y-115952380D01*
X170261904Y-116952380D02*
X170261904Y-115952380D01*
X170500000Y-115952380D01*
X170642857Y-116000000D01*
X170738095Y-116095238D01*
X170785714Y-116190476D01*
X170833333Y-116380952D01*
X170833333Y-116523809D01*
X170785714Y-116714285D01*
X170738095Y-116809523D01*
X170642857Y-116904761D01*
X170500000Y-116952380D01*
X170261904Y-116952380D01*
X125976190Y-81452380D02*
X126309523Y-82452380D01*
X126642857Y-81452380D01*
X126976190Y-82452380D02*
X126976190Y-81785714D01*
X126976190Y-81452380D02*
X126928571Y-81500000D01*
X126976190Y-81547619D01*
X127023809Y-81500000D01*
X126976190Y-81452380D01*
X126976190Y-81547619D01*
X127452380Y-81785714D02*
X127452380Y-82452380D01*
X127452380Y-81880952D02*
X127500000Y-81833333D01*
X127595238Y-81785714D01*
X127738095Y-81785714D01*
X127833333Y-81833333D01*
X127880952Y-81928571D01*
X127880952Y-82452380D01*
X157876190Y-83852380D02*
X158209523Y-84852380D01*
X158542857Y-83852380D01*
X159019047Y-84852380D02*
X158923809Y-84804761D01*
X158876190Y-84757142D01*
X158828571Y-84661904D01*
X158828571Y-84376190D01*
X158876190Y-84280952D01*
X158923809Y-84233333D01*
X159019047Y-84185714D01*
X159161904Y-84185714D01*
X159257142Y-84233333D01*
X159304761Y-84280952D01*
X159352380Y-84376190D01*
X159352380Y-84661904D01*
X159304761Y-84757142D01*
X159257142Y-84804761D01*
X159161904Y-84852380D01*
X159019047Y-84852380D01*
X160209523Y-84185714D02*
X160209523Y-84852380D01*
X159780952Y-84185714D02*
X159780952Y-84709523D01*
X159828571Y-84804761D01*
X159923809Y-84852380D01*
X160066666Y-84852380D01*
X160161904Y-84804761D01*
X160209523Y-84757142D01*
X160542857Y-84185714D02*
X160923809Y-84185714D01*
X160685714Y-83852380D02*
X160685714Y-84709523D01*
X160733333Y-84804761D01*
X160828571Y-84852380D01*
X160923809Y-84852380D01*
D12*
%TO.C,C10*%
X133810000Y-91388748D02*
X133810000Y-92811252D01*
X131990000Y-91388748D02*
X131990000Y-92811252D01*
%TO.C,C9*%
X136790000Y-91388748D02*
X136790000Y-92811252D01*
X138610000Y-91388748D02*
X138610000Y-92811252D01*
%TO.C,C8*%
X139190000Y-91388748D02*
X139190000Y-92811252D01*
X141010000Y-91388748D02*
X141010000Y-92811252D01*
%TO.C,C7*%
X134390000Y-91388748D02*
X134390000Y-92811252D01*
X136210000Y-91388748D02*
X136210000Y-92811252D01*
%TO.C,C4*%
X138995563Y-84660000D02*
X140060000Y-83595563D01*
X132604437Y-84660000D02*
X131540000Y-83595563D01*
X132604437Y-84660000D02*
X134490000Y-84660000D01*
X138995563Y-84660000D02*
X137110000Y-84660000D01*
X140060000Y-83595563D02*
X140060000Y-76140000D01*
X131540000Y-83595563D02*
X131540000Y-76140000D01*
X131540000Y-76140000D02*
X134490000Y-76140000D01*
X140060000Y-76140000D02*
X137110000Y-76140000D01*
%TO.C,D3*%
X147720000Y-80360000D02*
X147720000Y-78900000D01*
X150880000Y-80360000D02*
X150880000Y-78200000D01*
X150880000Y-80360000D02*
X149950000Y-80360000D01*
X147720000Y-80360000D02*
X148650000Y-80360000D01*
%TO.C,C20*%
X169959420Y-91910000D02*
X170240580Y-91910000D01*
X169959420Y-90890000D02*
X170240580Y-90890000D01*
%TO.C,C12*%
X131210000Y-89540580D02*
X131210000Y-89259420D01*
X130190000Y-89540580D02*
X130190000Y-89259420D01*
%TO.C,C3*%
X120390000Y-106340580D02*
X120390000Y-106059420D01*
X121410000Y-106340580D02*
X121410000Y-106059420D01*
%TO.C,C11*%
X135259420Y-96190000D02*
X135540580Y-96190000D01*
X135259420Y-97210000D02*
X135540580Y-97210000D01*
%TO.C,C1*%
X119910000Y-94834420D02*
X119910000Y-95115580D01*
X118890000Y-94834420D02*
X118890000Y-95115580D01*
%TO.C,C6*%
X118940580Y-104410000D02*
X118659420Y-104410000D01*
X118940580Y-103390000D02*
X118659420Y-103390000D01*
%TO.C,R1*%
X118322500Y-91562742D02*
X118322500Y-92037258D01*
X117277500Y-91562742D02*
X117277500Y-92037258D01*
%TO.C,C5*%
X120240580Y-109010000D02*
X119959420Y-109010000D01*
X120240580Y-107990000D02*
X119959420Y-107990000D01*
%TO.C,R2*%
X118322500Y-94687742D02*
X118322500Y-95162258D01*
X117277500Y-94687742D02*
X117277500Y-95162258D01*
%TO.C,C19*%
X123940580Y-98410000D02*
X123659420Y-98410000D01*
X123940580Y-97390000D02*
X123659420Y-97390000D01*
%TO.C,C13*%
X134259420Y-101290000D02*
X134540580Y-101290000D01*
X134259420Y-102310000D02*
X134540580Y-102310000D01*
%TO.C,R3*%
X118777500Y-106437258D02*
X118777500Y-105962742D01*
X119822500Y-106437258D02*
X119822500Y-105962742D01*
%TO.C,C2*%
X118659420Y-101790000D02*
X118940580Y-101790000D01*
X118659420Y-102810000D02*
X118940580Y-102810000D01*
%TO.C,R7*%
X129862742Y-106077500D02*
X130337258Y-106077500D01*
X129862742Y-107122500D02*
X130337258Y-107122500D01*
%TO.C,R6*%
X122677500Y-91937258D02*
X122677500Y-91462742D01*
X123722500Y-91937258D02*
X123722500Y-91462742D01*
%TO.C,R5*%
X119037258Y-99222500D02*
X118562742Y-99222500D01*
X119037258Y-98177500D02*
X118562742Y-98177500D01*
%TO.C,U1*%
X122450000Y-98850000D02*
X128430000Y-98850000D01*
X123970000Y-105750000D02*
X128430000Y-105750000D01*
%TO.C,R4*%
X118562742Y-99977500D02*
X119037258Y-99977500D01*
X118562742Y-101022500D02*
X119037258Y-101022500D01*
%TO.C,D1*%
X121980000Y-90840000D02*
X121980000Y-92300000D01*
X118820000Y-90840000D02*
X118820000Y-93000000D01*
X118820000Y-90840000D02*
X119750000Y-90840000D01*
X121980000Y-90840000D02*
X121050000Y-90840000D01*
%TO.C,R8*%
X132327064Y-95865000D02*
X131872936Y-95865000D01*
X132327064Y-97335000D02*
X131872936Y-97335000D01*
%TO.C,D2*%
X135780000Y-98540000D02*
X135780000Y-100000000D01*
X132620000Y-98540000D02*
X132620000Y-100700000D01*
X132620000Y-98540000D02*
X133550000Y-98540000D01*
X135780000Y-98540000D02*
X134850000Y-98540000D01*
%TO.C,R11*%
X118012258Y-111222500D02*
X117537742Y-111222500D01*
X118012258Y-110177500D02*
X117537742Y-110177500D01*
%TO.C,R10*%
X121024758Y-111222500D02*
X120550242Y-111222500D01*
X121024758Y-110177500D02*
X120550242Y-110177500D01*
%TO.C,J2*%
X136370000Y-120030000D02*
X136370000Y-118700000D01*
X137700000Y-120030000D02*
X136370000Y-120030000D01*
X138970000Y-120030000D02*
X138970000Y-117370000D01*
X138970000Y-117370000D02*
X156810000Y-117370000D01*
X138970000Y-120030000D02*
X156810000Y-120030000D01*
X156810000Y-120030000D02*
X156810000Y-117370000D01*
%TO.C,U3*%
X146635000Y-101140000D02*
X146635000Y-95250000D01*
X141495000Y-101595000D02*
X141495000Y-95250000D01*
%TO.C,U2*%
X146670000Y-93135000D02*
X146670000Y-87245000D01*
X141530000Y-93590000D02*
X141530000Y-87245000D01*
%TO.C,R9*%
X143310000Y-104827064D02*
X143310000Y-103372936D01*
X141490000Y-104827064D02*
X141490000Y-103372936D01*
%TO.C,L1*%
X160200000Y-88600000D02*
X160200000Y-91600000D01*
X147600000Y-88600000D02*
X160200000Y-88600000D01*
X147600000Y-91600000D02*
X147600000Y-88600000D01*
X147600000Y-101200000D02*
X147600000Y-98200000D01*
X160200000Y-101200000D02*
X147600000Y-101200000D01*
X160200000Y-98200000D02*
X160200000Y-101200000D01*
%TO.C,C18*%
X169190000Y-97488748D02*
X169190000Y-98911252D01*
X171010000Y-97488748D02*
X171010000Y-98911252D01*
%TO.C,C17*%
X166790000Y-97488748D02*
X166790000Y-98911252D01*
X168610000Y-97488748D02*
X168610000Y-98911252D01*
%TO.C,C16*%
X161290000Y-97488748D02*
X161290000Y-98911252D01*
X163110000Y-97488748D02*
X163110000Y-98911252D01*
%TO.C,C15*%
X171790000Y-97488748D02*
X171790000Y-98911252D01*
X173610000Y-97488748D02*
X173610000Y-98911252D01*
%TO.C,C14*%
X163990000Y-97488748D02*
X163990000Y-98911252D01*
X165810000Y-97488748D02*
X165810000Y-98911252D01*
%TD*%
M02*
