%TF.GenerationSoftware,KiCad,Pcbnew,(5.1.8)-1*%
%TF.CreationDate,2022-03-13T17:16:43-07:00*%
%TF.ProjectId,lm5116_synchronous_buck,6c6d3531-3136-45f7-9379-6e6368726f6e,rev?*%
%TF.SameCoordinates,Original*%
%TF.FileFunction,Paste,Top*%
%TF.FilePolarity,Positive*%
%FSLAX46Y46*%
G04 Gerber Fmt 4.6, Leading zero omitted, Abs format (unit mm)*
G04 Created by KiCad (PCBNEW (5.1.8)-1) date 2022-03-13 17:16:43*
%MOMM*%
%LPD*%
G01*
G04 APERTURE LIST*
%ADD10R,0.800000X0.900000*%
%ADD11R,1.400000X1.325000*%
%ADD12R,1.450000X0.450000*%
%ADD13R,3.910000X3.810000*%
%ADD14R,0.610000X1.020000*%
%ADD15R,0.610000X1.270000*%
%ADD16R,2.900000X5.400000*%
G04 APERTURE END LIST*
%TO.C,C10*%
G36*
G01*
X132249999Y-90050000D02*
X133550001Y-90050000D01*
G75*
G02*
X133800000Y-90299999I0J-249999D01*
G01*
X133800000Y-90950001D01*
G75*
G02*
X133550001Y-91200000I-249999J0D01*
G01*
X132249999Y-91200000D01*
G75*
G02*
X132000000Y-90950001I0J249999D01*
G01*
X132000000Y-90299999D01*
G75*
G02*
X132249999Y-90050000I249999J0D01*
G01*
G37*
G36*
G01*
X132249999Y-93000000D02*
X133550001Y-93000000D01*
G75*
G02*
X133800000Y-93249999I0J-249999D01*
G01*
X133800000Y-93900001D01*
G75*
G02*
X133550001Y-94150000I-249999J0D01*
G01*
X132249999Y-94150000D01*
G75*
G02*
X132000000Y-93900001I0J249999D01*
G01*
X132000000Y-93249999D01*
G75*
G02*
X132249999Y-93000000I249999J0D01*
G01*
G37*
%TD*%
%TO.C,C9*%
G36*
G01*
X137049999Y-93000000D02*
X138350001Y-93000000D01*
G75*
G02*
X138600000Y-93249999I0J-249999D01*
G01*
X138600000Y-93900001D01*
G75*
G02*
X138350001Y-94150000I-249999J0D01*
G01*
X137049999Y-94150000D01*
G75*
G02*
X136800000Y-93900001I0J249999D01*
G01*
X136800000Y-93249999D01*
G75*
G02*
X137049999Y-93000000I249999J0D01*
G01*
G37*
G36*
G01*
X137049999Y-90050000D02*
X138350001Y-90050000D01*
G75*
G02*
X138600000Y-90299999I0J-249999D01*
G01*
X138600000Y-90950001D01*
G75*
G02*
X138350001Y-91200000I-249999J0D01*
G01*
X137049999Y-91200000D01*
G75*
G02*
X136800000Y-90950001I0J249999D01*
G01*
X136800000Y-90299999D01*
G75*
G02*
X137049999Y-90050000I249999J0D01*
G01*
G37*
%TD*%
%TO.C,C8*%
G36*
G01*
X139449999Y-93000000D02*
X140750001Y-93000000D01*
G75*
G02*
X141000000Y-93249999I0J-249999D01*
G01*
X141000000Y-93900001D01*
G75*
G02*
X140750001Y-94150000I-249999J0D01*
G01*
X139449999Y-94150000D01*
G75*
G02*
X139200000Y-93900001I0J249999D01*
G01*
X139200000Y-93249999D01*
G75*
G02*
X139449999Y-93000000I249999J0D01*
G01*
G37*
G36*
G01*
X139449999Y-90050000D02*
X140750001Y-90050000D01*
G75*
G02*
X141000000Y-90299999I0J-249999D01*
G01*
X141000000Y-90950001D01*
G75*
G02*
X140750001Y-91200000I-249999J0D01*
G01*
X139449999Y-91200000D01*
G75*
G02*
X139200000Y-90950001I0J249999D01*
G01*
X139200000Y-90299999D01*
G75*
G02*
X139449999Y-90050000I249999J0D01*
G01*
G37*
%TD*%
%TO.C,C7*%
G36*
G01*
X134649999Y-93000000D02*
X135950001Y-93000000D01*
G75*
G02*
X136200000Y-93249999I0J-249999D01*
G01*
X136200000Y-93900001D01*
G75*
G02*
X135950001Y-94150000I-249999J0D01*
G01*
X134649999Y-94150000D01*
G75*
G02*
X134400000Y-93900001I0J249999D01*
G01*
X134400000Y-93249999D01*
G75*
G02*
X134649999Y-93000000I249999J0D01*
G01*
G37*
G36*
G01*
X134649999Y-90050000D02*
X135950001Y-90050000D01*
G75*
G02*
X136200000Y-90299999I0J-249999D01*
G01*
X136200000Y-90950001D01*
G75*
G02*
X135950001Y-91200000I-249999J0D01*
G01*
X134649999Y-91200000D01*
G75*
G02*
X134400000Y-90950001I0J249999D01*
G01*
X134400000Y-90299999D01*
G75*
G02*
X134649999Y-90050000I249999J0D01*
G01*
G37*
%TD*%
%TO.C,C4*%
G36*
G01*
X136600001Y-79050000D02*
X134999999Y-79050000D01*
G75*
G02*
X134750000Y-78800001I0J249999D01*
G01*
X134750000Y-74799999D01*
G75*
G02*
X134999999Y-74550000I249999J0D01*
G01*
X136600001Y-74550000D01*
G75*
G02*
X136850000Y-74799999I0J-249999D01*
G01*
X136850000Y-78800001D01*
G75*
G02*
X136600001Y-79050000I-249999J0D01*
G01*
G37*
G36*
G01*
X136600001Y-86250000D02*
X134999999Y-86250000D01*
G75*
G02*
X134750000Y-86000001I0J249999D01*
G01*
X134750000Y-81999999D01*
G75*
G02*
X134999999Y-81750000I249999J0D01*
G01*
X136600001Y-81750000D01*
G75*
G02*
X136850000Y-81999999I0J-249999D01*
G01*
X136850000Y-86000001D01*
G75*
G02*
X136600001Y-86250000I-249999J0D01*
G01*
G37*
%TD*%
D10*
%TO.C,D3*%
X149300000Y-80600000D03*
X148350000Y-78600000D03*
X150250000Y-78600000D03*
%TD*%
%TO.C,C20*%
G36*
G01*
X170425000Y-91650000D02*
X170425000Y-91150000D01*
G75*
G02*
X170650000Y-90925000I225000J0D01*
G01*
X171100000Y-90925000D01*
G75*
G02*
X171325000Y-91150000I0J-225000D01*
G01*
X171325000Y-91650000D01*
G75*
G02*
X171100000Y-91875000I-225000J0D01*
G01*
X170650000Y-91875000D01*
G75*
G02*
X170425000Y-91650000I0J225000D01*
G01*
G37*
G36*
G01*
X168875000Y-91650000D02*
X168875000Y-91150000D01*
G75*
G02*
X169100000Y-90925000I225000J0D01*
G01*
X169550000Y-90925000D01*
G75*
G02*
X169775000Y-91150000I0J-225000D01*
G01*
X169775000Y-91650000D01*
G75*
G02*
X169550000Y-91875000I-225000J0D01*
G01*
X169100000Y-91875000D01*
G75*
G02*
X168875000Y-91650000I0J225000D01*
G01*
G37*
%TD*%
%TO.C,C12*%
G36*
G01*
X130950000Y-89075000D02*
X130450000Y-89075000D01*
G75*
G02*
X130225000Y-88850000I0J225000D01*
G01*
X130225000Y-88400000D01*
G75*
G02*
X130450000Y-88175000I225000J0D01*
G01*
X130950000Y-88175000D01*
G75*
G02*
X131175000Y-88400000I0J-225000D01*
G01*
X131175000Y-88850000D01*
G75*
G02*
X130950000Y-89075000I-225000J0D01*
G01*
G37*
G36*
G01*
X130950000Y-90625000D02*
X130450000Y-90625000D01*
G75*
G02*
X130225000Y-90400000I0J225000D01*
G01*
X130225000Y-89950000D01*
G75*
G02*
X130450000Y-89725000I225000J0D01*
G01*
X130950000Y-89725000D01*
G75*
G02*
X131175000Y-89950000I0J-225000D01*
G01*
X131175000Y-90400000D01*
G75*
G02*
X130950000Y-90625000I-225000J0D01*
G01*
G37*
%TD*%
%TO.C,C3*%
G36*
G01*
X121150000Y-105875000D02*
X120650000Y-105875000D01*
G75*
G02*
X120425000Y-105650000I0J225000D01*
G01*
X120425000Y-105200000D01*
G75*
G02*
X120650000Y-104975000I225000J0D01*
G01*
X121150000Y-104975000D01*
G75*
G02*
X121375000Y-105200000I0J-225000D01*
G01*
X121375000Y-105650000D01*
G75*
G02*
X121150000Y-105875000I-225000J0D01*
G01*
G37*
G36*
G01*
X121150000Y-107425000D02*
X120650000Y-107425000D01*
G75*
G02*
X120425000Y-107200000I0J225000D01*
G01*
X120425000Y-106750000D01*
G75*
G02*
X120650000Y-106525000I225000J0D01*
G01*
X121150000Y-106525000D01*
G75*
G02*
X121375000Y-106750000I0J-225000D01*
G01*
X121375000Y-107200000D01*
G75*
G02*
X121150000Y-107425000I-225000J0D01*
G01*
G37*
%TD*%
%TO.C,C11*%
G36*
G01*
X135725000Y-96950000D02*
X135725000Y-96450000D01*
G75*
G02*
X135950000Y-96225000I225000J0D01*
G01*
X136400000Y-96225000D01*
G75*
G02*
X136625000Y-96450000I0J-225000D01*
G01*
X136625000Y-96950000D01*
G75*
G02*
X136400000Y-97175000I-225000J0D01*
G01*
X135950000Y-97175000D01*
G75*
G02*
X135725000Y-96950000I0J225000D01*
G01*
G37*
G36*
G01*
X134175000Y-96950000D02*
X134175000Y-96450000D01*
G75*
G02*
X134400000Y-96225000I225000J0D01*
G01*
X134850000Y-96225000D01*
G75*
G02*
X135075000Y-96450000I0J-225000D01*
G01*
X135075000Y-96950000D01*
G75*
G02*
X134850000Y-97175000I-225000J0D01*
G01*
X134400000Y-97175000D01*
G75*
G02*
X134175000Y-96950000I0J225000D01*
G01*
G37*
%TD*%
%TO.C,C1*%
G36*
G01*
X119150000Y-95300000D02*
X119650000Y-95300000D01*
G75*
G02*
X119875000Y-95525000I0J-225000D01*
G01*
X119875000Y-95975000D01*
G75*
G02*
X119650000Y-96200000I-225000J0D01*
G01*
X119150000Y-96200000D01*
G75*
G02*
X118925000Y-95975000I0J225000D01*
G01*
X118925000Y-95525000D01*
G75*
G02*
X119150000Y-95300000I225000J0D01*
G01*
G37*
G36*
G01*
X119150000Y-93750000D02*
X119650000Y-93750000D01*
G75*
G02*
X119875000Y-93975000I0J-225000D01*
G01*
X119875000Y-94425000D01*
G75*
G02*
X119650000Y-94650000I-225000J0D01*
G01*
X119150000Y-94650000D01*
G75*
G02*
X118925000Y-94425000I0J225000D01*
G01*
X118925000Y-93975000D01*
G75*
G02*
X119150000Y-93750000I225000J0D01*
G01*
G37*
%TD*%
%TO.C,C6*%
G36*
G01*
X118475000Y-103650000D02*
X118475000Y-104150000D01*
G75*
G02*
X118250000Y-104375000I-225000J0D01*
G01*
X117800000Y-104375000D01*
G75*
G02*
X117575000Y-104150000I0J225000D01*
G01*
X117575000Y-103650000D01*
G75*
G02*
X117800000Y-103425000I225000J0D01*
G01*
X118250000Y-103425000D01*
G75*
G02*
X118475000Y-103650000I0J-225000D01*
G01*
G37*
G36*
G01*
X120025000Y-103650000D02*
X120025000Y-104150000D01*
G75*
G02*
X119800000Y-104375000I-225000J0D01*
G01*
X119350000Y-104375000D01*
G75*
G02*
X119125000Y-104150000I0J225000D01*
G01*
X119125000Y-103650000D01*
G75*
G02*
X119350000Y-103425000I225000J0D01*
G01*
X119800000Y-103425000D01*
G75*
G02*
X120025000Y-103650000I0J-225000D01*
G01*
G37*
%TD*%
%TO.C,R1*%
G36*
G01*
X117525000Y-92225000D02*
X118075000Y-92225000D01*
G75*
G02*
X118275000Y-92425000I0J-200000D01*
G01*
X118275000Y-92825000D01*
G75*
G02*
X118075000Y-93025000I-200000J0D01*
G01*
X117525000Y-93025000D01*
G75*
G02*
X117325000Y-92825000I0J200000D01*
G01*
X117325000Y-92425000D01*
G75*
G02*
X117525000Y-92225000I200000J0D01*
G01*
G37*
G36*
G01*
X117525000Y-90575000D02*
X118075000Y-90575000D01*
G75*
G02*
X118275000Y-90775000I0J-200000D01*
G01*
X118275000Y-91175000D01*
G75*
G02*
X118075000Y-91375000I-200000J0D01*
G01*
X117525000Y-91375000D01*
G75*
G02*
X117325000Y-91175000I0J200000D01*
G01*
X117325000Y-90775000D01*
G75*
G02*
X117525000Y-90575000I200000J0D01*
G01*
G37*
%TD*%
%TO.C,C5*%
G36*
G01*
X119775000Y-108250000D02*
X119775000Y-108750000D01*
G75*
G02*
X119550000Y-108975000I-225000J0D01*
G01*
X119100000Y-108975000D01*
G75*
G02*
X118875000Y-108750000I0J225000D01*
G01*
X118875000Y-108250000D01*
G75*
G02*
X119100000Y-108025000I225000J0D01*
G01*
X119550000Y-108025000D01*
G75*
G02*
X119775000Y-108250000I0J-225000D01*
G01*
G37*
G36*
G01*
X121325000Y-108250000D02*
X121325000Y-108750000D01*
G75*
G02*
X121100000Y-108975000I-225000J0D01*
G01*
X120650000Y-108975000D01*
G75*
G02*
X120425000Y-108750000I0J225000D01*
G01*
X120425000Y-108250000D01*
G75*
G02*
X120650000Y-108025000I225000J0D01*
G01*
X121100000Y-108025000D01*
G75*
G02*
X121325000Y-108250000I0J-225000D01*
G01*
G37*
%TD*%
%TO.C,R2*%
G36*
G01*
X117525000Y-95350000D02*
X118075000Y-95350000D01*
G75*
G02*
X118275000Y-95550000I0J-200000D01*
G01*
X118275000Y-95950000D01*
G75*
G02*
X118075000Y-96150000I-200000J0D01*
G01*
X117525000Y-96150000D01*
G75*
G02*
X117325000Y-95950000I0J200000D01*
G01*
X117325000Y-95550000D01*
G75*
G02*
X117525000Y-95350000I200000J0D01*
G01*
G37*
G36*
G01*
X117525000Y-93700000D02*
X118075000Y-93700000D01*
G75*
G02*
X118275000Y-93900000I0J-200000D01*
G01*
X118275000Y-94300000D01*
G75*
G02*
X118075000Y-94500000I-200000J0D01*
G01*
X117525000Y-94500000D01*
G75*
G02*
X117325000Y-94300000I0J200000D01*
G01*
X117325000Y-93900000D01*
G75*
G02*
X117525000Y-93700000I200000J0D01*
G01*
G37*
%TD*%
%TO.C,C19*%
G36*
G01*
X123475000Y-97650000D02*
X123475000Y-98150000D01*
G75*
G02*
X123250000Y-98375000I-225000J0D01*
G01*
X122800000Y-98375000D01*
G75*
G02*
X122575000Y-98150000I0J225000D01*
G01*
X122575000Y-97650000D01*
G75*
G02*
X122800000Y-97425000I225000J0D01*
G01*
X123250000Y-97425000D01*
G75*
G02*
X123475000Y-97650000I0J-225000D01*
G01*
G37*
G36*
G01*
X125025000Y-97650000D02*
X125025000Y-98150000D01*
G75*
G02*
X124800000Y-98375000I-225000J0D01*
G01*
X124350000Y-98375000D01*
G75*
G02*
X124125000Y-98150000I0J225000D01*
G01*
X124125000Y-97650000D01*
G75*
G02*
X124350000Y-97425000I225000J0D01*
G01*
X124800000Y-97425000D01*
G75*
G02*
X125025000Y-97650000I0J-225000D01*
G01*
G37*
%TD*%
%TO.C,C13*%
G36*
G01*
X134725000Y-102050000D02*
X134725000Y-101550000D01*
G75*
G02*
X134950000Y-101325000I225000J0D01*
G01*
X135400000Y-101325000D01*
G75*
G02*
X135625000Y-101550000I0J-225000D01*
G01*
X135625000Y-102050000D01*
G75*
G02*
X135400000Y-102275000I-225000J0D01*
G01*
X134950000Y-102275000D01*
G75*
G02*
X134725000Y-102050000I0J225000D01*
G01*
G37*
G36*
G01*
X133175000Y-102050000D02*
X133175000Y-101550000D01*
G75*
G02*
X133400000Y-101325000I225000J0D01*
G01*
X133850000Y-101325000D01*
G75*
G02*
X134075000Y-101550000I0J-225000D01*
G01*
X134075000Y-102050000D01*
G75*
G02*
X133850000Y-102275000I-225000J0D01*
G01*
X133400000Y-102275000D01*
G75*
G02*
X133175000Y-102050000I0J225000D01*
G01*
G37*
%TD*%
%TO.C,R3*%
G36*
G01*
X119575000Y-105775000D02*
X119025000Y-105775000D01*
G75*
G02*
X118825000Y-105575000I0J200000D01*
G01*
X118825000Y-105175000D01*
G75*
G02*
X119025000Y-104975000I200000J0D01*
G01*
X119575000Y-104975000D01*
G75*
G02*
X119775000Y-105175000I0J-200000D01*
G01*
X119775000Y-105575000D01*
G75*
G02*
X119575000Y-105775000I-200000J0D01*
G01*
G37*
G36*
G01*
X119575000Y-107425000D02*
X119025000Y-107425000D01*
G75*
G02*
X118825000Y-107225000I0J200000D01*
G01*
X118825000Y-106825000D01*
G75*
G02*
X119025000Y-106625000I200000J0D01*
G01*
X119575000Y-106625000D01*
G75*
G02*
X119775000Y-106825000I0J-200000D01*
G01*
X119775000Y-107225000D01*
G75*
G02*
X119575000Y-107425000I-200000J0D01*
G01*
G37*
%TD*%
%TO.C,C2*%
G36*
G01*
X119125000Y-102550000D02*
X119125000Y-102050000D01*
G75*
G02*
X119350000Y-101825000I225000J0D01*
G01*
X119800000Y-101825000D01*
G75*
G02*
X120025000Y-102050000I0J-225000D01*
G01*
X120025000Y-102550000D01*
G75*
G02*
X119800000Y-102775000I-225000J0D01*
G01*
X119350000Y-102775000D01*
G75*
G02*
X119125000Y-102550000I0J225000D01*
G01*
G37*
G36*
G01*
X117575000Y-102550000D02*
X117575000Y-102050000D01*
G75*
G02*
X117800000Y-101825000I225000J0D01*
G01*
X118250000Y-101825000D01*
G75*
G02*
X118475000Y-102050000I0J-225000D01*
G01*
X118475000Y-102550000D01*
G75*
G02*
X118250000Y-102775000I-225000J0D01*
G01*
X117800000Y-102775000D01*
G75*
G02*
X117575000Y-102550000I0J225000D01*
G01*
G37*
%TD*%
%TO.C,R7*%
G36*
G01*
X130525000Y-106875000D02*
X130525000Y-106325000D01*
G75*
G02*
X130725000Y-106125000I200000J0D01*
G01*
X131125000Y-106125000D01*
G75*
G02*
X131325000Y-106325000I0J-200000D01*
G01*
X131325000Y-106875000D01*
G75*
G02*
X131125000Y-107075000I-200000J0D01*
G01*
X130725000Y-107075000D01*
G75*
G02*
X130525000Y-106875000I0J200000D01*
G01*
G37*
G36*
G01*
X128875000Y-106875000D02*
X128875000Y-106325000D01*
G75*
G02*
X129075000Y-106125000I200000J0D01*
G01*
X129475000Y-106125000D01*
G75*
G02*
X129675000Y-106325000I0J-200000D01*
G01*
X129675000Y-106875000D01*
G75*
G02*
X129475000Y-107075000I-200000J0D01*
G01*
X129075000Y-107075000D01*
G75*
G02*
X128875000Y-106875000I0J200000D01*
G01*
G37*
%TD*%
%TO.C,R6*%
G36*
G01*
X123475000Y-91275000D02*
X122925000Y-91275000D01*
G75*
G02*
X122725000Y-91075000I0J200000D01*
G01*
X122725000Y-90675000D01*
G75*
G02*
X122925000Y-90475000I200000J0D01*
G01*
X123475000Y-90475000D01*
G75*
G02*
X123675000Y-90675000I0J-200000D01*
G01*
X123675000Y-91075000D01*
G75*
G02*
X123475000Y-91275000I-200000J0D01*
G01*
G37*
G36*
G01*
X123475000Y-92925000D02*
X122925000Y-92925000D01*
G75*
G02*
X122725000Y-92725000I0J200000D01*
G01*
X122725000Y-92325000D01*
G75*
G02*
X122925000Y-92125000I200000J0D01*
G01*
X123475000Y-92125000D01*
G75*
G02*
X123675000Y-92325000I0J-200000D01*
G01*
X123675000Y-92725000D01*
G75*
G02*
X123475000Y-92925000I-200000J0D01*
G01*
G37*
%TD*%
%TO.C,R5*%
G36*
G01*
X118375000Y-98425000D02*
X118375000Y-98975000D01*
G75*
G02*
X118175000Y-99175000I-200000J0D01*
G01*
X117775000Y-99175000D01*
G75*
G02*
X117575000Y-98975000I0J200000D01*
G01*
X117575000Y-98425000D01*
G75*
G02*
X117775000Y-98225000I200000J0D01*
G01*
X118175000Y-98225000D01*
G75*
G02*
X118375000Y-98425000I0J-200000D01*
G01*
G37*
G36*
G01*
X120025000Y-98425000D02*
X120025000Y-98975000D01*
G75*
G02*
X119825000Y-99175000I-200000J0D01*
G01*
X119425000Y-99175000D01*
G75*
G02*
X119225000Y-98975000I0J200000D01*
G01*
X119225000Y-98425000D01*
G75*
G02*
X119425000Y-98225000I200000J0D01*
G01*
X119825000Y-98225000D01*
G75*
G02*
X120025000Y-98425000I0J-200000D01*
G01*
G37*
%TD*%
D11*
%TO.C,U1*%
X125350000Y-104737500D03*
X127050000Y-104737500D03*
X125350000Y-103112500D03*
X127050000Y-103112500D03*
X125350000Y-101487500D03*
X127050000Y-101487500D03*
X127050000Y-99862500D03*
X125350000Y-99862500D03*
D12*
X129150000Y-99380000D03*
X129150000Y-100030000D03*
X129150000Y-100680000D03*
X129150000Y-101330000D03*
X129150000Y-101970000D03*
X129150000Y-102630000D03*
X129150000Y-103270000D03*
X129150000Y-103920000D03*
X129150000Y-104570000D03*
X129150000Y-105220000D03*
X123250000Y-105220000D03*
X123250000Y-104570000D03*
X123250000Y-103920000D03*
X123250000Y-103270000D03*
X123250000Y-102630000D03*
X123250000Y-101970000D03*
X123250000Y-101330000D03*
X123250000Y-100680000D03*
X123250000Y-100030000D03*
X123250000Y-99380000D03*
%TD*%
%TO.C,R4*%
G36*
G01*
X119225000Y-100775000D02*
X119225000Y-100225000D01*
G75*
G02*
X119425000Y-100025000I200000J0D01*
G01*
X119825000Y-100025000D01*
G75*
G02*
X120025000Y-100225000I0J-200000D01*
G01*
X120025000Y-100775000D01*
G75*
G02*
X119825000Y-100975000I-200000J0D01*
G01*
X119425000Y-100975000D01*
G75*
G02*
X119225000Y-100775000I0J200000D01*
G01*
G37*
G36*
G01*
X117575000Y-100775000D02*
X117575000Y-100225000D01*
G75*
G02*
X117775000Y-100025000I200000J0D01*
G01*
X118175000Y-100025000D01*
G75*
G02*
X118375000Y-100225000I0J-200000D01*
G01*
X118375000Y-100775000D01*
G75*
G02*
X118175000Y-100975000I-200000J0D01*
G01*
X117775000Y-100975000D01*
G75*
G02*
X117575000Y-100775000I0J200000D01*
G01*
G37*
%TD*%
D10*
%TO.C,D1*%
X120400000Y-90600000D03*
X121350000Y-92600000D03*
X119450000Y-92600000D03*
%TD*%
%TO.C,R8*%
G36*
G01*
X131700000Y-96149998D02*
X131700000Y-97050002D01*
G75*
G02*
X131450002Y-97300000I-249998J0D01*
G01*
X130924998Y-97300000D01*
G75*
G02*
X130675000Y-97050002I0J249998D01*
G01*
X130675000Y-96149998D01*
G75*
G02*
X130924998Y-95900000I249998J0D01*
G01*
X131450002Y-95900000D01*
G75*
G02*
X131700000Y-96149998I0J-249998D01*
G01*
G37*
G36*
G01*
X133525000Y-96149998D02*
X133525000Y-97050002D01*
G75*
G02*
X133275002Y-97300000I-249998J0D01*
G01*
X132749998Y-97300000D01*
G75*
G02*
X132500000Y-97050002I0J249998D01*
G01*
X132500000Y-96149998D01*
G75*
G02*
X132749998Y-95900000I249998J0D01*
G01*
X133275002Y-95900000D01*
G75*
G02*
X133525000Y-96149998I0J-249998D01*
G01*
G37*
%TD*%
%TO.C,D2*%
X134200000Y-98300000D03*
X135150000Y-100300000D03*
X133250000Y-100300000D03*
%TD*%
%TO.C,R11*%
G36*
G01*
X117350000Y-110425000D02*
X117350000Y-110975000D01*
G75*
G02*
X117150000Y-111175000I-200000J0D01*
G01*
X116750000Y-111175000D01*
G75*
G02*
X116550000Y-110975000I0J200000D01*
G01*
X116550000Y-110425000D01*
G75*
G02*
X116750000Y-110225000I200000J0D01*
G01*
X117150000Y-110225000D01*
G75*
G02*
X117350000Y-110425000I0J-200000D01*
G01*
G37*
G36*
G01*
X119000000Y-110425000D02*
X119000000Y-110975000D01*
G75*
G02*
X118800000Y-111175000I-200000J0D01*
G01*
X118400000Y-111175000D01*
G75*
G02*
X118200000Y-110975000I0J200000D01*
G01*
X118200000Y-110425000D01*
G75*
G02*
X118400000Y-110225000I200000J0D01*
G01*
X118800000Y-110225000D01*
G75*
G02*
X119000000Y-110425000I0J-200000D01*
G01*
G37*
%TD*%
%TO.C,R10*%
G36*
G01*
X120362500Y-110425000D02*
X120362500Y-110975000D01*
G75*
G02*
X120162500Y-111175000I-200000J0D01*
G01*
X119762500Y-111175000D01*
G75*
G02*
X119562500Y-110975000I0J200000D01*
G01*
X119562500Y-110425000D01*
G75*
G02*
X119762500Y-110225000I200000J0D01*
G01*
X120162500Y-110225000D01*
G75*
G02*
X120362500Y-110425000I0J-200000D01*
G01*
G37*
G36*
G01*
X122012500Y-110425000D02*
X122012500Y-110975000D01*
G75*
G02*
X121812500Y-111175000I-200000J0D01*
G01*
X121412500Y-111175000D01*
G75*
G02*
X121212500Y-110975000I0J200000D01*
G01*
X121212500Y-110425000D01*
G75*
G02*
X121412500Y-110225000I200000J0D01*
G01*
X121812500Y-110225000D01*
G75*
G02*
X122012500Y-110425000I0J-200000D01*
G01*
G37*
%TD*%
D13*
%TO.C,U3*%
X144065000Y-97505000D03*
D14*
X142160000Y-95400000D03*
X143430000Y-95400000D03*
X144700000Y-95400000D03*
X145970000Y-95400000D03*
D15*
X145970000Y-100865000D03*
X144700000Y-100865000D03*
X143430000Y-100865000D03*
X142160000Y-100865000D03*
%TD*%
D13*
%TO.C,U2*%
X144100000Y-89500000D03*
D14*
X142195000Y-87395000D03*
X143465000Y-87395000D03*
X144735000Y-87395000D03*
X146005000Y-87395000D03*
D15*
X146005000Y-92860000D03*
X144735000Y-92860000D03*
X143465000Y-92860000D03*
X142195000Y-92860000D03*
%TD*%
%TO.C,R9*%
G36*
G01*
X143025003Y-103200000D02*
X141774997Y-103200000D01*
G75*
G02*
X141525000Y-102950003I0J249997D01*
G01*
X141525000Y-102324997D01*
G75*
G02*
X141774997Y-102075000I249997J0D01*
G01*
X143025003Y-102075000D01*
G75*
G02*
X143275000Y-102324997I0J-249997D01*
G01*
X143275000Y-102950003D01*
G75*
G02*
X143025003Y-103200000I-249997J0D01*
G01*
G37*
G36*
G01*
X143025003Y-106125000D02*
X141774997Y-106125000D01*
G75*
G02*
X141525000Y-105875003I0J249997D01*
G01*
X141525000Y-105249997D01*
G75*
G02*
X141774997Y-105000000I249997J0D01*
G01*
X143025003Y-105000000D01*
G75*
G02*
X143275000Y-105249997I0J-249997D01*
G01*
X143275000Y-105875003D01*
G75*
G02*
X143025003Y-106125000I-249997J0D01*
G01*
G37*
%TD*%
D16*
%TO.C,L1*%
X158850000Y-94900000D03*
X148950000Y-94900000D03*
%TD*%
%TO.C,C18*%
G36*
G01*
X169449999Y-99100000D02*
X170750001Y-99100000D01*
G75*
G02*
X171000000Y-99349999I0J-249999D01*
G01*
X171000000Y-100000001D01*
G75*
G02*
X170750001Y-100250000I-249999J0D01*
G01*
X169449999Y-100250000D01*
G75*
G02*
X169200000Y-100000001I0J249999D01*
G01*
X169200000Y-99349999D01*
G75*
G02*
X169449999Y-99100000I249999J0D01*
G01*
G37*
G36*
G01*
X169449999Y-96150000D02*
X170750001Y-96150000D01*
G75*
G02*
X171000000Y-96399999I0J-249999D01*
G01*
X171000000Y-97050001D01*
G75*
G02*
X170750001Y-97300000I-249999J0D01*
G01*
X169449999Y-97300000D01*
G75*
G02*
X169200000Y-97050001I0J249999D01*
G01*
X169200000Y-96399999D01*
G75*
G02*
X169449999Y-96150000I249999J0D01*
G01*
G37*
%TD*%
%TO.C,C17*%
G36*
G01*
X167049999Y-99100000D02*
X168350001Y-99100000D01*
G75*
G02*
X168600000Y-99349999I0J-249999D01*
G01*
X168600000Y-100000001D01*
G75*
G02*
X168350001Y-100250000I-249999J0D01*
G01*
X167049999Y-100250000D01*
G75*
G02*
X166800000Y-100000001I0J249999D01*
G01*
X166800000Y-99349999D01*
G75*
G02*
X167049999Y-99100000I249999J0D01*
G01*
G37*
G36*
G01*
X167049999Y-96150000D02*
X168350001Y-96150000D01*
G75*
G02*
X168600000Y-96399999I0J-249999D01*
G01*
X168600000Y-97050001D01*
G75*
G02*
X168350001Y-97300000I-249999J0D01*
G01*
X167049999Y-97300000D01*
G75*
G02*
X166800000Y-97050001I0J249999D01*
G01*
X166800000Y-96399999D01*
G75*
G02*
X167049999Y-96150000I249999J0D01*
G01*
G37*
%TD*%
%TO.C,C16*%
G36*
G01*
X161549999Y-99100000D02*
X162850001Y-99100000D01*
G75*
G02*
X163100000Y-99349999I0J-249999D01*
G01*
X163100000Y-100000001D01*
G75*
G02*
X162850001Y-100250000I-249999J0D01*
G01*
X161549999Y-100250000D01*
G75*
G02*
X161300000Y-100000001I0J249999D01*
G01*
X161300000Y-99349999D01*
G75*
G02*
X161549999Y-99100000I249999J0D01*
G01*
G37*
G36*
G01*
X161549999Y-96150000D02*
X162850001Y-96150000D01*
G75*
G02*
X163100000Y-96399999I0J-249999D01*
G01*
X163100000Y-97050001D01*
G75*
G02*
X162850001Y-97300000I-249999J0D01*
G01*
X161549999Y-97300000D01*
G75*
G02*
X161300000Y-97050001I0J249999D01*
G01*
X161300000Y-96399999D01*
G75*
G02*
X161549999Y-96150000I249999J0D01*
G01*
G37*
%TD*%
%TO.C,C15*%
G36*
G01*
X172049999Y-99100000D02*
X173350001Y-99100000D01*
G75*
G02*
X173600000Y-99349999I0J-249999D01*
G01*
X173600000Y-100000001D01*
G75*
G02*
X173350001Y-100250000I-249999J0D01*
G01*
X172049999Y-100250000D01*
G75*
G02*
X171800000Y-100000001I0J249999D01*
G01*
X171800000Y-99349999D01*
G75*
G02*
X172049999Y-99100000I249999J0D01*
G01*
G37*
G36*
G01*
X172049999Y-96150000D02*
X173350001Y-96150000D01*
G75*
G02*
X173600000Y-96399999I0J-249999D01*
G01*
X173600000Y-97050001D01*
G75*
G02*
X173350001Y-97300000I-249999J0D01*
G01*
X172049999Y-97300000D01*
G75*
G02*
X171800000Y-97050001I0J249999D01*
G01*
X171800000Y-96399999D01*
G75*
G02*
X172049999Y-96150000I249999J0D01*
G01*
G37*
%TD*%
%TO.C,C14*%
G36*
G01*
X164249999Y-99100000D02*
X165550001Y-99100000D01*
G75*
G02*
X165800000Y-99349999I0J-249999D01*
G01*
X165800000Y-100000001D01*
G75*
G02*
X165550001Y-100250000I-249999J0D01*
G01*
X164249999Y-100250000D01*
G75*
G02*
X164000000Y-100000001I0J249999D01*
G01*
X164000000Y-99349999D01*
G75*
G02*
X164249999Y-99100000I249999J0D01*
G01*
G37*
G36*
G01*
X164249999Y-96150000D02*
X165550001Y-96150000D01*
G75*
G02*
X165800000Y-96399999I0J-249999D01*
G01*
X165800000Y-97050001D01*
G75*
G02*
X165550001Y-97300000I-249999J0D01*
G01*
X164249999Y-97300000D01*
G75*
G02*
X164000000Y-97050001I0J249999D01*
G01*
X164000000Y-96399999D01*
G75*
G02*
X164249999Y-96150000I249999J0D01*
G01*
G37*
%TD*%
M02*
