M48
; DRILL file {KiCad (5.1.8)-1} date 03/13/22 17:16:39
; FORMAT={-:-/ absolute / inch / decimal}
; #@! TF.CreationDate,2022-03-13T17:16:39-07:00
; #@! TF.GenerationSoftware,Kicad,Pcbnew,(5.1.8)-1
; #@! TF.FileFunction,Plated,1,4,PTH
FMAT,2
INCH
T1C0.0157
T2C0.0236
T3C0.0394
T4C0.1772
%
G90
G05
T1
X4.5787Y-4.2638
X4.5827Y-4.1614
X4.5906Y-4.0787
X4.5945Y-3.8858
X4.5945Y-3.9843
X4.6339Y-3.815
X4.7008Y-3.815
X4.7205Y-4.3189
X4.7559Y-3.9567
X4.7913Y-3.9882
X4.8465Y-3.685
X4.8465Y-4.2795
X4.9331Y-3.9252
X4.9331Y-3.9921
X4.9331Y-4.0591
X4.9528Y-3.8583
X4.9921Y-3.3071
X4.9921Y-3.3622
X5.0Y-3.9252
X5.0Y-3.9921
X5.0Y-4.0591
X5.0Y-4.126
X5.0315Y-4.5551
X5.0472Y-3.3071
X5.0472Y-3.3622
X5.0906Y-4.5551
X5.0945Y-3.4882
X5.1024Y-3.3071
X5.1024Y-3.3622
X5.1457Y-3.937
X5.1496Y-4.0433
X5.1496Y-4.1142
X5.1496Y-4.5551
X5.1969Y-4.0039
X5.2087Y-4.5551
X5.2323Y-3.5669
X5.2323Y-3.6841
X5.2677Y-4.5551
X5.3268Y-3.2559
X5.3268Y-3.2992
X5.3268Y-3.3425
X5.3268Y-3.5669
X5.3268Y-3.685
X5.3268Y-4.5551
X5.3307Y-3.0
X5.3307Y-3.0394
X5.3307Y-3.0787
X5.3661Y-3.2559
X5.3661Y-3.2992
X5.3661Y-3.3425
X5.3701Y-3.0
X5.3701Y-3.0394
X5.3701Y-3.0787
X5.3858Y-4.5551
X5.4213Y-3.5669
X5.5157Y-3.5669
X5.5945Y-3.3031
X5.5945Y-3.3583
X5.5984Y-3.7087
X5.6181Y-3.5
X5.6181Y-3.5591
X5.6378Y-2.9764
X5.6378Y-3.0512
X5.6496Y-3.7087
X5.6535Y-3.3031
X5.6535Y-3.3583
X5.6693Y-3.5
X5.6693Y-3.5591
X5.6693Y-3.8622
X5.6693Y-4.0866
X5.6969Y-2.9764
X5.6969Y-3.0512
X5.6969Y-3.7087
X5.7047Y-4.0866
X5.7126Y-3.3031
X5.7126Y-3.3583
X5.7205Y-3.5
X5.7205Y-3.5591
X5.7283Y-3.815
X5.7283Y-3.8622
X5.748Y-3.7087
X5.748Y-4.0236
X5.7559Y-2.9764
X5.7559Y-3.0512
X5.7717Y-3.3031
X5.7717Y-3.3583
X5.8307Y-3.3031
X5.8307Y-3.3583
X5.8346Y-3.6654
X5.8346Y-3.7087
X5.8346Y-3.7598
X5.8346Y-3.811
X5.8858Y-3.6654
X5.8858Y-3.7087
X5.8858Y-3.7598
X5.8858Y-3.811
X5.8898Y-3.3031
X5.8898Y-3.3583
X6.2283Y-3.6575
X6.2283Y-3.6969
X6.2283Y-3.7362
X6.2283Y-3.7756
X6.2283Y-3.815
X6.2835Y-3.6575
X6.2835Y-3.6969
X6.2835Y-3.7362
X6.2835Y-3.7756
X6.374Y-3.1063
X6.3819Y-4.3465
X6.3819Y-4.4055
X6.3858Y-3.6654
X6.3858Y-3.7283
X6.3858Y-3.8071
X6.3858Y-3.9252
X6.3858Y-4.0157
X6.3858Y-4.0748
X6.4331Y-3.1063
X6.4409Y-4.3465
X6.4409Y-4.4055
X6.4449Y-3.6654
X6.4449Y-3.7283
X6.4449Y-4.0157
X6.4449Y-4.0748
X6.4921Y-3.1063
X6.4921Y-3.8071
X6.4921Y-3.9252
X6.5Y-4.3465
X6.5Y-4.4055
X6.5039Y-3.6654
X6.5039Y-3.7283
X6.5039Y-4.0157
X6.5039Y-4.0748
X6.5512Y-3.1063
X6.5591Y-4.3465
X6.5591Y-4.4055
X6.563Y-3.6654
X6.563Y-3.7283
X6.563Y-4.0157
X6.563Y-4.0748
X6.6024Y-3.8071
X6.6024Y-3.9252
X6.6102Y-3.1063
X6.6181Y-4.3465
X6.6181Y-4.4055
X6.622Y-3.6654
X6.622Y-3.7283
X6.622Y-4.0157
X6.622Y-4.0748
X6.6693Y-3.1063
X6.6772Y-4.3465
X6.6772Y-4.4055
X6.6811Y-3.6654
X6.6811Y-3.7283
X6.6811Y-4.0157
X6.6811Y-4.0748
X6.6969Y-3.8071
X6.6969Y-3.9252
X6.7283Y-3.1063
X6.7362Y-4.3465
X6.7362Y-4.4055
X6.7402Y-3.6654
X6.7402Y-3.7283
X6.7402Y-4.0157
X6.7402Y-4.0748
X6.7795Y-3.5984
X6.7992Y-3.8071
X6.7992Y-3.9252
T2
X5.3622Y-3.7559
X4.6309Y-4.811
X4.6698Y-4.7171
X4.6698Y-4.905
X4.7638Y-4.6781
X4.7638Y-4.9439
X4.8577Y-4.7171
X4.8577Y-4.905
X4.8967Y-4.811
X6.4026Y-4.811
X6.4415Y-4.7171
X6.4415Y-4.905
X6.5354Y-4.6781
X6.5354Y-4.9439
X6.6294Y-4.7171
X6.6294Y-4.905
X6.6683Y-4.811
X6.4026Y-3.3386
X6.4415Y-3.2446
X6.4415Y-3.4325
X6.5354Y-3.2057
X6.5354Y-3.4715
X6.6294Y-3.2446
X6.6294Y-3.4325
X6.6683Y-3.3386
X4.6309Y-3.3386
X4.6698Y-3.2446
X4.6698Y-3.4325
X4.7638Y-3.2057
X4.7638Y-3.4715
X4.8577Y-3.2446
X4.8577Y-3.4325
X4.8967Y-3.3386
T3
X5.4213Y-4.6732
X5.5213Y-4.6732
X5.6213Y-4.6732
X5.7213Y-4.6732
X5.8213Y-4.6732
X5.9213Y-4.6732
X6.0213Y-4.6732
X6.1213Y-4.6732
T4
X4.7638Y-4.811
X6.5354Y-4.811
X6.5354Y-3.3386
X4.7638Y-3.3386
T0
M30
